<?xml version="1.0" standalone="no"?>
<!DOCTYPE svg PUBLIC "-//W3C//DTD SVG 20010904//EN"
 "http://www.w3.org/TR/2001/REC-SVG-20010904/DTD/svg10.dtd">
<svg version="1.0" xmlns="http://www.w3.org/2000/svg"
 width="700.000000pt" height="700.000000pt" viewBox="0 0 700.000000 700.000000"
 preserveAspectRatio="xMidYMid meet">
<metadata>
Created by potrace 1.11, written by Peter Selinger 2001-2013
</metadata>
<g transform="translate(0.000000,700.000000) scale(0.100000,-0.100000)"
fill="#000000" stroke="none">
<path d="M4717 5144 c-2 -2 -65 -10 -152 -20 -48 -5 -203 -29 -255 -39 -14 -3
-59 -12 -100 -19 -333 -65 -732 -211 -1033 -380 -38 -22 -77 -39 -86 -40 -10
-1 -40 -20 -67 -43 -27 -24 -91 -74 -143 -113 -153 -113 -351 -303 -484 -465
l-25 -30 -161 160 c-88 88 -164 161 -169 163 -5 1 -365 -176 -801 -393 l-793
-396 435 -436 436 -436 -70 -100 -69 -101 581 -582 582 -582 26 17 c14 9 61
39 103 68 l76 52 435 -435 434 -434 396 792 c219 436 397 796 397 799 0 3 -73
79 -162 168 l-162 161 59 52 c171 148 401 399 495 538 12 19 40 53 60 75 20
22 37 50 38 62 0 11 12 39 25 60 37 59 119 225 172 349 102 239 213 616 241
819 2 16 6 37 9 45 2 8 7 38 11 65 3 28 7 52 9 55 2 3 6 41 10 85 4 44 9 89
12 100 2 11 7 98 10 193 l6 174 -162 -3 c-89 -2 -163 -4 -164 -5z m69 -323
c-3 -47 -8 -97 -10 -111 -3 -14 -7 -45 -10 -70 -4 -25 -9 -58 -11 -75 -19
-107 -26 -143 -31 -165 -3 -14 -7 -36 -10 -50 -33 -167 -120 -445 -198 -635
-50 -119 -157 -326 -168 -323 -17 6 -1068 1063 -1065 1072 4 13 191 107 322
162 146 62 310 117 473 160 141 38 153 40 216 50 22 3 43 7 46 9 9 5 269 43
345 50 39 4 71 8 73 9 1 2 9 3 18 3 14 0 15 -11 10 -86z m-1144 -1071 c340
-339 568 -575 565 -583 -27 -71 -452 -507 -494 -507 -6 0 -26 -17 -45 -37 -18
-21 -50 -51 -69 -68 -20 -16 -92 -77 -160 -135 -68 -58 -180 -151 -249 -205
-69 -55 -127 -102 -130 -105 -3 -3 -21 -17 -40 -30 -19 -14 -43 -32 -53 -40
-45 -36 -64 -51 -220 -167 -91 -68 -171 -123 -178 -123 -7 0 -29 -16 -49 -35
-19 -18 -60 -51 -90 -73 l-55 -38 -439 439 -440 439 19 34 c10 19 42 61 72 93
29 33 53 65 53 73 0 16 432 593 470 628 3 3 46 55 95 115 128 158 263 314 307
356 21 20 38 40 38 44 0 42 464 493 508 495 8 0 270 -256 584 -570z m-1537
170 l109 -109 -20 -23 c-10 -13 -21 -25 -24 -28 -3 -3 -39 -45 -80 -95 -41
-49 -77 -92 -80 -95 -20 -19 -272 -341 -397 -508 l-153 -202 -301 301 -302
302 564 282 c310 156 566 284 569 284 3 1 55 -48 115 -109z m1707 -1707 l107
-108 -284 -568 -284 -568 -295 295 c-163 163 -297 300 -298 304 -2 5 62 58
142 117 238 178 605 469 715 567 47 41 80 67 85 68 3 0 53 -48 112 -107z"/>
<path d="M1375 1827 c-130 -63 -215 -209 -289 -493 -23 -90 -41 -166 -39 -167
7 -7 294 73 368 102 194 78 299 180 312 304 10 100 -33 181 -130 245 -56 37
-155 41 -222 9z m98 -249 c-24 -26 -59 -46 -48 -26 16 28 48 57 57 52 5 -3 1
-15 -9 -26z"/>
</g>
</svg>
